<?xml version="1.0" encoding="utf-8"?>
<!-- Generator: Adobe Illustrator 20.0.0, SVG Export Plug-In . SVG Version: 6.00 Build 0)  -->
<svg version="1.1" id="Capa_1" xmlns="http://www.w3.org/2000/svg" xmlns:xlink="http://www.w3.org/1999/xlink" x="0px" y="0px"
	 viewBox="0 0 32 32" style="enable-background:new 0 0 32 32;" xml:space="preserve">
<style type="text/css">
	.st0{fill:#FFFFFF;}
</style>
<g>
	<g>
		<path class="st0" d="M24.8,19.7c-0.6-0.6-1.4-1-2.1-1c-0.8,0-1.5,0.3-2.2,1l-2,2c-0.2-0.1-0.3-0.2-0.5-0.3
			c-0.2-0.1-0.4-0.2-0.6-0.3c-1.9-1.2-3.6-2.8-5.2-4.8c-0.8-1-1.3-1.8-1.7-2.7c0.5-0.5,1-1,1.5-1.4c0.2-0.2,0.4-0.4,0.5-0.5
			c1.3-1.3,1.3-3.1,0-4.4l-1.7-1.7c-0.2-0.2-0.4-0.4-0.6-0.6C9.7,4.5,9.3,4.1,8.9,3.7C8.3,3.1,7.5,2.8,6.8,2.8S5.2,3.1,4.6,3.7
			c0,0,0,0,0,0L2.4,5.9C1.6,6.7,1.1,7.7,1,8.9c-0.2,1.9,0.4,3.6,0.8,4.7c1,2.8,2.6,5.4,4.9,8.1c2.8,3.3,6.1,5.9,10,7.8
			c1.5,0.7,3.4,1.5,5.6,1.7c0.1,0,0.3,0,0.4,0c1.5,0,2.7-0.5,3.7-1.6c0,0,0,0,0,0c0.3-0.4,0.7-0.8,1.1-1.2c0.3-0.3,0.6-0.5,0.8-0.8
			c0.6-0.7,1-1.4,1-2.2c0-0.8-0.3-1.5-1-2.2L24.8,19.7z M27.1,26.4C27.1,26.4,27.1,26.4,27.1,26.4c-0.2,0.3-0.5,0.5-0.8,0.8
			c-0.4,0.4-0.8,0.8-1.2,1.3c-0.6,0.7-1.4,1-2.4,1c-0.1,0-0.2,0-0.3,0c-1.9-0.1-3.6-0.9-5-1.5c-3.6-1.7-6.8-4.2-9.4-7.3
			c-2.2-2.6-3.6-5-4.6-7.6c-0.6-1.6-0.8-2.8-0.7-4c0.1-0.7,0.3-1.4,0.9-1.9L5.8,5c0.3-0.3,0.6-0.5,1-0.5c0.4,0,0.7,0.2,0.9,0.4
			c0,0,0,0,0,0c0.4,0.4,0.8,0.7,1.1,1.1c0.2,0.2,0.4,0.4,0.6,0.6l1.7,1.7c0.7,0.7,0.7,1.3,0,2c-0.2,0.2-0.4,0.4-0.5,0.5
			c-0.5,0.5-1,1.1-1.6,1.6c0,0,0,0,0,0c-0.5,0.5-0.4,1.1-0.3,1.4c0,0,0,0,0,0.1c0.5,1.1,1.1,2.1,2.1,3.3l0,0
			c1.8,2.2,3.6,3.8,5.6,5.1c0.3,0.2,0.5,0.3,0.8,0.4c0.2,0.1,0.4,0.2,0.6,0.3c0,0,0.1,0,0.1,0c0.2,0.1,0.4,0.2,0.6,0.2
			c0.5,0,0.9-0.3,1-0.4l2.2-2.2c0.2-0.2,0.6-0.5,1-0.5c0.4,0,0.7,0.2,0.9,0.5c0,0,0,0,0,0l3.5,3.5C27.7,25.1,27.7,25.7,27.1,26.4z"
			/>
		<path class="st0" d="M17.3,8.2c1.7,0.3,3.2,1.1,4.4,2.3s2,2.7,2.3,4.4c0.1,0.4,0.4,0.7,0.8,0.7c0.1,0,0.1,0,0.1,0
			c0.5-0.1,0.8-0.5,0.7-1c-0.3-2-1.3-3.9-2.8-5.3s-3.3-2.4-5.3-2.8c-0.5-0.1-0.9,0.2-1,0.7S16.8,8.1,17.3,8.2z"/>
		<path class="st0" d="M31.1,14.3C30.5,11,29,8,26.5,5.6s-5.4-4-8.7-4.5c-0.5-0.1-0.9,0.2-1,0.7c-0.1,0.5,0.2,0.9,0.7,1
			c3,0.5,5.7,1.9,7.8,4c2.1,2.1,3.5,4.8,4,7.8c0.1,0.4,0.4,0.7,0.8,0.7c0.1,0,0.1,0,0.1,0C30.8,15.2,31.2,14.8,31.1,14.3z"/>
	</g>
</g>
</svg>
