<?xml version="1.0" encoding="utf-8"?>
<!-- Generator: Adobe Illustrator 20.0.0, SVG Export Plug-In . SVG Version: 6.00 Build 0)  -->
<svg version="1.1" id="Capa_1" xmlns="http://www.w3.org/2000/svg" xmlns:xlink="http://www.w3.org/1999/xlink" x="0px" y="0px"
	 viewBox="0 0 32 32" style="enable-background:new 0 0 32 32;" xml:space="preserve">
<style type="text/css">
	.st0{fill:#FFFFFF;}
</style>
<g>
	<g>
		<path class="st0" d="M16,0.5C9.2,0.5,3.6,6.1,3.6,12.9c0,0.8,0.1,1.6,0.2,2.3c0,0,0,0.2,0.1,0.4c0.2,0.8,0.5,1.7,0.8,2.4
			c1.3,3.1,4.3,8,10.7,13.2c0.2,0.1,0.4,0.2,0.6,0.2c0.2,0,0.4-0.1,0.6-0.2c6.4-5.2,9.4-10,10.7-13.2c0.4-0.8,0.6-1.6,0.8-2.4
			c0.1-0.2,0.1-0.4,0.1-0.4c0.1-0.8,0.2-1.6,0.2-2.3C28.4,6.1,22.8,0.5,16,0.5z M26.5,15C26.5,15,26.5,15,26.5,15
			c0,0.1,0,0.2-0.1,0.3c0,0,0,0,0,0c-0.2,0.7-0.4,1.4-0.7,2.1c0,0,0,0,0,0c-1.2,2.9-3.9,7.3-9.7,12.1c-5.8-4.8-8.5-9.2-9.7-12.1
			c0,0,0,0,0,0C6,16.7,5.8,16,5.6,15.3c0,0,0,0,0,0c0-0.1-0.1-0.2-0.1-0.3c0,0,0,0,0,0c-0.1-0.7-0.2-1.3-0.2-2
			C5.3,7,10.1,2.3,16,2.3S26.7,7,26.7,12.9C26.7,13.6,26.6,14.3,26.5,15z"/>
		<path class="st0" d="M16,5.2c-4.3,0-7.9,3.5-7.9,7.9s3.5,7.9,7.9,7.9s7.9-3.5,7.9-7.9S20.3,5.2,16,5.2z M16,19.2
			c-3.4,0-6.1-2.8-6.1-6.1s2.8-6.1,6.1-6.1s6.1,2.8,6.1,6.1S19.4,19.2,16,19.2z"/>
	</g>
</g>
</svg>
