<?xml version="1.0" encoding="utf-8"?>
<!-- Generator: Adobe Illustrator 20.0.0, SVG Export Plug-In . SVG Version: 6.00 Build 0)  -->
<svg version="1.1" id="Capa_1" xmlns="http://www.w3.org/2000/svg" xmlns:xlink="http://www.w3.org/1999/xlink" x="0px" y="0px"
	 viewBox="0 0 32 32" style="enable-background:new 0 0 32 32;" xml:space="preserve">
<style type="text/css">
	.st0{fill:#FFFFFF;}
</style>
<path class="st0" d="M26.8,5.1H5.2c-1.9,0-3.5,1.6-3.5,3.5v14.8c0,1.9,1.6,3.5,3.5,3.5h21.6c1.9,0,3.5-1.6,3.5-3.5V8.6
	C30.3,6.7,28.7,5.1,26.8,5.1z M28.7,23.4c0,1-0.9,1.9-1.9,1.9H5.2c-1,0-1.9-0.9-1.9-1.9V8.6c0-1,0.9-1.9,1.9-1.9h21.6
	c1,0,1.9,0.9,1.9,1.9L28.7,23.4L28.7,23.4z"/>
<path class="st0" d="M19.7,15.8l7-6.3c0.3-0.3,0.4-0.8,0.1-1.1c-0.3-0.3-0.8-0.4-1.1-0.1L16,17l-1.9-1.7c0,0,0,0,0,0
	c0,0-0.1-0.1-0.1-0.1L6.3,8.4C6,8.1,5.5,8.1,5.2,8.4C4.9,8.8,5,9.3,5.3,9.6l7.1,6.3l-7,6.6c-0.3,0.3-0.3,0.8,0,1.1
	c0.2,0.2,0.4,0.3,0.6,0.3c0.2,0,0.4-0.1,0.5-0.2l7.2-6.7l1.9,1.7c0.2,0.1,0.3,0.2,0.5,0.2c0.2,0,0.4-0.1,0.5-0.2l2-1.8l7.1,6.8
	c0.2,0.1,0.4,0.2,0.6,0.2c0.2,0,0.4-0.1,0.6-0.2c0.3-0.3,0.3-0.8,0-1.1L19.7,15.8z"/>
</svg>
