<?xml version="1.0" encoding="iso-8859-1"?>
<svg x="0px" y="0px" viewBox="0 0 32 32" width="24" height="24" xml:space="preserve" xmlns="http://www.w3.org/2000/svg">
    <path style="fill:#db0546" d="m 9.6370481,10.818151 3.2157839,0 0,-3.1288712 c 0,-1.3906093 0,-3.5634364 1.042957,-4.8671326 1.042957,-1.3906094 2.520479,-2.34665327 5.040958,-2.34665327 4.084915,0 5.823177,0.60839157 5.823177,0.60839157 l -0.782218,4.7802196 c 0,0 -1.390609,-0.3476524 -2.607392,-0.3476524 -1.216783,0 -2.346653,0.4345654 -2.346653,1.7382617 l 0,3.6503496 5.127871,0 -0.347652,4.693307 -4.867133,0 0,16.165833 -6.083915,0 0,-16.252746 -3.2157839,0 0,-4.693307 z"/>
</svg>