<?xml version="1.0" encoding="iso-8859-1"?>
<svg x="0px" y="0px" viewBox="0 0 32 32" width="24" height="24" xml:space="preserve" xmlns="http://www.w3.org/2000/svg">
    <path style="fill:#db0546" d="m 7.1874642,29.097425 -6.0970446,0 0,-19.5976423 6.0970446,0 0,19.5976423 z M 3.9647404,7.0609652 l 0,0 c -2.2646164,0 -3.65822646,-1.4807108 -3.65822646,-3.3969247 0,-1.9162139 1.48071066,-3.39692459 3.74532716,-3.39692459 2.2646164,0 3.6582269,1.48071069 3.6582269,3.39692459 0,1.9162139 -1.4807111,3.3969247 -3.7453276,3.3969247 z m 27.6980016,22.0364598 -6.968051,0 0,-10.103673 c 0,-2.613018 -1.045207,-4.442132 -3.484025,-4.442132 -1.829113,0 -2.87432,1.219409 -3.309824,2.438817 -0.174201,0.435504 -0.174201,1.045208 -0.174201,1.567812 l 0,10.626277 -6.88095,0 c 0,0 0.0871,-17.94273 0,-19.5976424 l 6.88095,0 0,3.0485224 c 0.435503,-1.30651 2.613019,-3.2227233 6.097044,-3.2227233 4.355031,0 7.751956,2.7872203 7.751956,8.8842643 l 0,10.800478 z"/>
</svg>